<?xml version="1.0" encoding="UTF-8" standalone="no"?>
<!DOCTYPE svg PUBLIC "-//W3C//DTD SVG 1.1//EN" "http://www.w3.org/Graphics/SVG/1.1/DTD/svg11.dtd">
<svg width="100%" height="100%" viewBox="0 0 1280 1280" version="1.1" 
    xmlns="http://www.w3.org/2000/svg" 
    xmlns:xlink="http://www.w3.org/1999/xlink" xml:space="preserve" style="fill-rule:evenodd;clip-rule:evenodd;stroke-linejoin:round;stroke-miterlimit:1.41421;">
    <style>
path {
   animation: dash 5s linear both infinite; 
   }
    @keyframes dash { 
    0% {fill:rgba(70,181,255,0.1);}
    10% {fill:rgba(70,181,255,0.1);}
    11% {fill:rgba(70,181,255,0.4);}
    25% {fill:rgba(70,181,255,0.4);}
    26% {fill:rgba(70,181,255,0.1);}
    39% {fill:rgba(70,181,255,0.1);}
    40% {fill:rgba(70,181,255,0.4);}
    41% {fill:rgba(70,181,255,0.2);}
    43% {fill:rgba(70,181,255,0.5);}
    62% {fill:rgba(70,181,255,0.5);}
    65% {fill:rgba(70,181,255,0.2);}
    66% {fill:rgba(70,181,255,0.4);}
    89% {fill:rgba(70,181,255,0.4);}
    92% {fill:rgba(70,181,255,0.2);}
    97% {fill:rgba(70,181,255,0.2);}
    99% {fill:rgba(70,181,255,0.1);}
    100% {fill:rgba(70,181,255,0.1);}
     }
</style>
    <path d="M819.976,861L820,1000L820,1000.03C820.018,1011.06 828.972,1020 840,1020C851.038,1020 860,1011.04 860,1000C860,983.443 873.443,970 890,970C906.557,970 920,983.443 920,1000C920,1000.07 920,1000.13 919.999,1000.19C919.894,1044.26 884.088,1080 840,1080C795.847,1080 760,1044.15 760,1000L759.975,860L760,860L760,840L759.998,839.742C759.86,828.822 750.952,820 740,820C728.962,820 720,828.962 720,840L719.986,889L720,889L720,891L719.985,891L720,922.194L719.975,922.194C718.912,965.425 683.484,1000.19 640,1000.19C595.847,1000.19 560,964.348 560,920.194L560,890.994L559.985,890.994L560,780C560,768.962 551.038,760 540,760C528.962,760 520,768.961 520,780L520,1060C520,1104.15 484.153,1140 440,1140C395.847,1140 360,1104.15 360,1060L360,390C360,252.29 471.584,140.438 609.192,140.001L610,140L610.808,140.001C720.464,140.349 813.595,211.447 846.905,310L847,310L847.001,310.129C847.002,310.185 847.003,310.241 847.004,310.296C847.599,312.062 848.174,313.837 848.73,315.62C850.53,318.263 853.564,320 857,320L857,320.347C892.353,323.863 920,353.729 920,390C920,425.929 892.873,455.572 858,459.547L858,460L857.871,460.001C852.411,460.07 848.001,464.524 848,470L846.905,470C813.595,568.553 720.464,639.651 610.808,639.999L610,640C533.996,640 465.867,606.01 420,552.414L420,1060C420,1071.04 428.962,1080 440,1080C451.038,1080 460,1071.04 460,1060L460,780L460.002,779.483C460.281,735.567 496.019,700 540,700C583.819,700 619.456,735.306 619.994,779L620,779L619.986,889L620,889L620,920.194C620,931.233 628.962,940.194 640,940.194C651.038,940.194 660,931.232 660,920.194L659.986,890.994L660,890.994L660,890.194L659.985,890.194L659.985,890.491L659.986,890.994L659.985,890.994L659.985,890.491L659.985,890.194L659.985,890.194L660,840C660,795.846 695.847,760 740,760C784.153,760 820,795.846 820,840L820,861L819.976,861ZM788.679,325.293C762.254,252.428 692.496,200.261 610.614,200.001L610,200C505.136,200 420,285.136 420,390L420.001,390.597C420.324,495.187 505.335,580 610,580L610.614,579.999C694.249,579.734 765.235,525.315 790.316,450L790.904,450C798.782,423.566 821.871,403.659 850,400.453L850,400C855.519,400 860,395.519 860,390C860,384.481 855.519,380 850,380L850,379.653C819.767,376.646 795.168,354.368 788.679,325.293ZM710,320.347C726.557,320.347 740,333.789 740,350.347C740,366.904 726.557,380.347 710,380.347C693.443,380.347 680,366.904 680,350.347C680,333.789 693.443,320.347 710,320.347Z"/>
</svg>