<?xml version="1.0" encoding="UTF-8" standalone="no"?>
<!DOCTYPE svg PUBLIC "-//W3C//DTD SVG 1.1//EN" "http://www.w3.org/Graphics/SVG/1.1/DTD/svg11.dtd">
<svg width="100%" height="100%" viewBox="0 0 7600 1700" version="1.1" xmlns="http://www.w3.org/2000/svg" xmlns:xlink="http://www.w3.org/1999/xlink" xml:space="preserve" style="fill-rule:evenodd;clip-rule:evenodd;stroke-linejoin:round;stroke-miterlimit:1.41421;">
    <g id="logo">
        <path d="M465.077,1373.68C443.172,1357.12 412.402,1359.27 393.024,1378.73C361.764,1409.93 332.309,1439.51 332.309,1439.51L284.101,1487.71L284.001,1487.62C275.094,1495.33 263.479,1500 250.781,1500C222.754,1500 200,1477.25 200,1449.22L200,850C200,491.255 491.255,200 850,200C1208.75,200 1500,491.255 1500,850C1500,1208.75 1208.75,1500 850,1500C706.357,1500 573.535,1453.31 465.897,1374.28C465.705,1374.14 465.474,1374.06 465.236,1374.06C465.236,1374.06 465.235,1374.06 465.235,1374.06C465.193,1374.06 465.154,1374.05 465.124,1374.02C465.095,1373.99 465.078,1373.95 465.078,1373.9C465.078,1373.8 465.078,1373.68 465.078,1373.68C465.078,1373.68 465.078,1373.68 465.077,1373.68ZM1041.38,544.768C1010.57,453.612 924.424,387.851 822.999,387.529L822.252,387.528L821.504,387.529C694.225,387.933 591.016,491.39 591.016,618.764L591.016,1238.48C591.016,1279.32 624.172,1312.47 665.011,1312.47C705.85,1312.47 739.006,1279.32 739.007,1238.48L739.007,979.492C739.007,969.282 747.296,960.993 757.506,960.993C767.715,960.993 776.004,969.282 776.004,979.492L775.991,1082.16L776.004,1082.16L776.004,1109.16C776.005,1150 809.161,1183.16 850,1183.16C890.22,1183.16 922.988,1151 923.973,1111.01L923.996,1111.01L923.982,1082.16L923.996,1082.16L923.996,1080.31L923.982,1080.31L923.996,1034.99C923.996,1024.78 932.285,1016.49 942.494,1016.49C952.624,1016.49 960.864,1024.65 960.992,1034.75L960.993,1034.99L960.993,1053.49L960.971,1053.49L960.993,1182.98C960.993,1223.82 994.15,1256.98 1034.99,1256.98C1075.77,1256.98 1108.89,1223.92 1108.98,1183.16C1108.98,1183.1 1108.98,1183.04 1108.98,1182.98C1108.98,1167.66 1096.55,1155.23 1081.24,1155.23C1065.92,1155.23 1053.49,1167.66 1053.49,1182.98C1053.49,1193.19 1045.2,1201.48 1034.99,1201.48C1024.79,1201.48 1016.51,1193.21 1016.49,1183.01L1016.49,1182.98L1016.47,1054.41L1016.49,1054.41L1016.49,1034.99C1016.49,994.149 983.333,960.993 942.494,960.993C901.655,960.993 868.499,994.149 868.499,1034.99L868.485,1081.42L868.485,1081.42L868.485,1081.69L868.485,1082.16L868.486,1082.16L868.485,1081.69L868.485,1081.42L868.499,1081.42L868.499,1082.16L868.486,1082.16L868.499,1109.16C868.499,1119.37 860.21,1127.66 850,1127.66C839.79,1127.66 831.501,1119.37 831.501,1109.16L831.501,1080.31L831.488,1080.31L831.501,978.567L831.495,978.567C830.998,938.152 798.035,905.497 757.506,905.497C716.826,905.497 683.77,938.394 683.512,979.014L683.51,979.492L683.51,1238.48C683.51,1248.69 675.221,1256.98 665.011,1256.98C654.801,1256.98 646.512,1248.69 646.512,1238.48L646.512,768.988C688.937,818.561 751.952,850 822.252,850L822.999,849.999C924.424,849.677 1010.57,783.916 1041.38,692.759L1042.39,692.759C1042.39,687.694 1046.47,683.575 1051.52,683.511L1051.64,683.51L1051.64,683.091C1083.89,679.414 1108.98,651.996 1108.98,618.764C1108.98,585.215 1083.41,557.591 1050.71,554.339L1050.71,554.018C1047.54,554.018 1044.73,552.411 1043.06,549.967C1042.55,548.317 1042.02,546.676 1041.47,545.042C1041.47,544.991 1041.46,544.939 1041.46,544.888L1041.46,544.768L1041.38,544.768ZM987.52,558.913C963.078,491.517 898.556,443.266 822.82,443.025L822.252,443.025C725.258,443.025 646.512,521.771 646.512,618.764L646.513,619.317C646.812,716.056 725.443,794.503 822.252,794.503L822.82,794.502C900.177,794.257 965.836,743.923 989.034,674.261L989.578,674.261C996.865,649.81 1018.22,631.398 1044.24,628.433L1044.24,628.013C1049.34,628.013 1053.49,623.869 1053.49,618.764C1053.49,613.659 1049.34,609.515 1044.24,609.515L1044.24,609.194C1016.27,606.412 993.522,585.807 987.52,558.913ZM914.746,554.339C930.061,554.339 942.494,566.772 942.494,582.087C942.494,597.402 930.061,609.835 914.746,609.835C899.431,609.835 886.998,597.402 886.998,582.087C886.998,566.772 899.431,554.339 914.746,554.339Z" style="fill:white;"/>
    </g>
    <g transform="matrix(1,0,0,1,340,2.27374e-13)">
        <path d="M5510.07,430C5510.02,429.339 5510,428.672 5510,428C5510,412.546 5522.55,400 5538,400C5553.45,400 5566,412.546 5566,428C5566,428.672 5565.98,429.339 5565.93,430L5566,430L5566,701.456C5607.23,654.581 5667.66,625 5735,625C5859.18,625 5960,725.819 5960,850C5960,974.264 5859.26,1075 5735,1075L5735,1074.72C5733.69,1074.9 5732.36,1075 5731,1075C5715.55,1075 5703,1062.45 5703,1047C5703,1031.55 5715.55,1019 5731,1019C5732.36,1019 5733.69,1019.1 5735,1019.28L5735,1018.75C5828.2,1018.75 5903.75,943.198 5903.75,850C5903.75,756.864 5828.14,681.25 5735,681.25C5641.8,681.25 5566.25,756.802 5566.25,850L5566,850C5566,850 5566,949.007 5566,999.49C5566,1017.35 5575.53,1033.86 5591,1042.79C5675.36,1091.5 5944.27,1246.75 5944.27,1246.75L5944.23,1246.81C5944.83,1247.1 5945.42,1247.41 5946,1247.75C5959.38,1255.48 5963.98,1272.62 5956.25,1286C5948.52,1299.38 5931.38,1303.98 5918,1296.25C5917.42,1295.91 5916.85,1295.56 5916.3,1295.19L5916.27,1295.25C5916.27,1295.25 5680.82,1159.31 5596,1110.34C5589.81,1106.77 5582.19,1106.77 5576,1110.34C5569.81,1113.91 5566,1120.52 5566,1127.66C5566,1179.18 5566,1270 5566,1270L5565.93,1270C5565.98,1270.66 5566,1271.33 5566,1272C5566,1287.45 5553.45,1300 5538,1300C5522.55,1300 5510,1287.45 5510,1272C5510,1271.33 5510.02,1270.66 5510.07,1270L5510,1270L5510,430L5510.07,430Z" style="fill:white;"/>
    </g>
    <g transform="matrix(1,0,0,1,440,-4.54747e-13)">
        <g transform="matrix(0.933333,0,0,0.933333,4746,506.667)">
            <circle cx="1920" cy="820" r="30" style="fill:white;"/>
        </g>
        <g transform="matrix(0.933333,0,0,0.933333,4746,112.667)">
            <circle cx="1920" cy="820" r="30" style="fill:white;"/>
        </g>
        <g transform="matrix(0.302703,0,0,0.8125,5983.3,343.75)">
            <rect x="1740" y="660" width="185" height="480" style="fill:white;"/>
        </g>
        <g transform="matrix(0.9,0,0,0.9,5025,535)">
            <path d="M2150,600C2150,461.929 2038.07,350 1900,350C1761.93,350 1650,461.929 1650,600L1712.5,600C1712.5,496.447 1796.45,412.5 1900,412.5C2003.55,412.5 2087.5,496.447 2087.5,600L2150,600Z" style="fill:white;"/>
        </g>
        <g transform="matrix(0.933333,0,0,0.933333,5140,314.667)">
            <circle cx="1920" cy="820" r="30" style="fill:white;"/>
        </g>
    </g>
    <g transform="matrix(1,0,0,1,390,4.54747e-13)">
        <g transform="matrix(0.9,0,0,0.9,4525,535)">
            <path d="M2150,600C2150,461.929 2038.07,350 1900,350C1761.93,350 1650,461.929 1650,600L1712.5,600C1712.5,496.447 1796.45,412.5 1900,412.5C2003.55,412.5 2087.5,496.447 2087.5,600L2150,600Z" style="fill:white;"/>
        </g>
        <g transform="matrix(0.9,0,0,0.9,4525,535)">
            <path d="M1650,600C1650,738.071 1761.93,850 1900,850L1900,787.5C1796.45,787.5 1712.5,703.553 1712.5,600L1650,600Z" style="fill:white;"/>
        </g>
        <g transform="matrix(0.933333,0,0,0.933333,4448,506.667)">
            <circle cx="1920" cy="820" r="30" style="fill:white;"/>
        </g>
        <g transform="matrix(0.933333,0,0,0.933333,4246,314.667)">
            <circle cx="1920" cy="820" r="30" style="fill:white;"/>
        </g>
        <g transform="matrix(0.933333,0,0,0.933333,4640,314.667)">
            <circle cx="1920" cy="820" r="30" style="fill:white;"/>
        </g>
        <g transform="matrix(1.85352e-17,0.302703,-0.816667,5.00064e-17,6970,525.297)">
            <rect x="1740" y="660" width="185" height="480" style="fill:white;"/>
        </g>
    </g>
    <g transform="matrix(1,0,0,1,290,-4.54747e-13)">
        <g transform="matrix(0.9,0,0,0.9,3525,535)">
            <path d="M2150,600C2150,461.929 2038.07,350 1900,350C1762.02,350 1650,462.021 1650,600C1650,738.071 1761.93,850 1900,850L1900,787.5C1796.45,787.5 1712.5,703.553 1712.5,600C1712.5,496.516 1796.52,412.5 1900,412.5C2003.55,412.5 2087.5,496.447 2087.5,600L2150,600Z" style="fill:white;"/>
        </g>
        <g transform="matrix(0.933333,0,0,0.933333,3640,506.667)">
            <circle cx="1920" cy="820" r="30" style="fill:white;"/>
        </g>
        <g transform="matrix(0.933333,0,0,0.933333,3443,506.667)">
            <circle cx="1920" cy="820" r="30" style="fill:white;"/>
        </g>
        <g transform="matrix(0.302703,0,0,0.40625,4877.3,806.875)">
            <rect x="1740" y="660" width="185" height="480" style="fill:white;"/>
        </g>
    </g>
    <g transform="matrix(1,0,0,1,247.482,0)">
        <g transform="matrix(0.933333,0,0,0.933333,2959,54.6667)">
            <circle cx="1920" cy="820" r="30" style="fill:white;"/>
        </g>
        <g>
            <g transform="matrix(0.933333,0,0,0.933333,2903.47,-337.333)">
                <circle cx="1920" cy="820" r="30" style="fill:white;"/>
            </g>
            <g transform="matrix(0.933333,0,0,0.933333,2786,506.667)">
                <circle cx="1920" cy="820" r="30" style="fill:white;"/>
            </g>
            <g transform="matrix(0.299788,0.0419042,-0.248108,1.775,4310.13,-824.413)">
                <rect x="1740" y="660" width="185" height="480" style="fill:white;"/>
            </g>
        </g>
        <g transform="matrix(-1,0,0,1,9501.43,0)">
            <g transform="matrix(0.933333,0,0,0.933333,2903.47,-337.333)">
                <circle cx="1920" cy="820" r="30" style="fill:white;"/>
            </g>
            <g transform="matrix(0.933333,0,0,0.933333,2786,506.667)">
                <circle cx="1920" cy="820" r="30" style="fill:white;"/>
            </g>
            <g transform="matrix(0.299788,0.0419042,-0.248108,1.775,4310.13,-824.413)">
                <rect x="1740" y="660" width="185" height="480" style="fill:white;"/>
            </g>
        </g>
        <g transform="matrix(0.299757,-0.0421281,0.114835,0.817096,4070.02,-38.1871)">
            <rect x="1740" y="660" width="185" height="480" style="fill:white;"/>
        </g>
        <g transform="matrix(-0.299757,-0.0421281,-0.114835,0.817096,5431.66,-38.1871)">
            <rect x="1740" y="660" width="185" height="480" style="fill:white;"/>
        </g>
    </g>
    <g transform="matrix(1,0,0,1,200,0)">
        <g transform="matrix(0.9,0,0,0.9,2565,535)">
            <path d="M2150,600C2150,461.929 2038.07,350 1900,350C1761.93,350 1650,461.929 1650,600L1712.5,600C1712.5,496.447 1796.45,412.5 1900,412.5C2003.55,412.5 2087.5,496.447 2087.5,600L2150,600Z" style="fill:white;"/>
        </g>
        <g transform="matrix(0.9,0,0,0.9,2565,535)">
            <path d="M1650,600C1650,738.071 1761.93,850 1900,850L1900,787.5C1796.45,787.5 1712.5,703.553 1712.5,600L1650,600Z" style="fill:white;"/>
        </g>
        <g transform="matrix(0.933333,0,0,0.933333,2488,506.667)">
            <circle cx="1920" cy="820" r="30" style="fill:white;"/>
        </g>
        <g transform="matrix(0.933333,0,0,0.933333,2286,314.667)">
            <circle cx="1920" cy="820" r="30" style="fill:white;"/>
        </g>
        <g transform="matrix(0.933333,0,0,0.933333,2680,314.667)">
            <circle cx="1920" cy="820" r="30" style="fill:white;"/>
        </g>
        <g transform="matrix(1.85352e-17,0.302703,-0.816667,5.00064e-17,5010,525.297)">
            <rect x="1740" y="660" width="185" height="480" style="fill:white;"/>
        </g>
    </g>
    <g transform="matrix(1,0,0,1,200,5.68434e-14)">
        <g transform="matrix(0.9,0,0,0.9,2215,535)">
            <path d="M1650,600C1650,738.071 1761.93,850 1900,850L1900,787.5C1796.45,787.5 1712.5,703.553 1712.5,600L1650,600Z" style="fill:white;"/>
        </g>
        <g transform="matrix(0.933333,0,0,0.933333,2133,506.667)">
            <circle cx="1920" cy="820" r="30" style="fill:white;"/>
        </g>
        <g transform="matrix(0.933333,0,0,0.933333,1936,-337.333)">
            <circle cx="1920" cy="820" r="30" style="fill:white;"/>
        </g>
        <g transform="matrix(0.302703,0,0,1.34375,3173.3,-456.875)">
            <rect x="1740" y="660" width="185" height="480" style="fill:white;"/>
        </g>
    </g>
    <g transform="matrix(1,0,0,1,150,2.27374e-13)">
        <g transform="matrix(0.933333,0,0,0.933333,1830,506.667)">
            <circle cx="1920" cy="820" r="30" style="fill:white;"/>
        </g>
        <g transform="matrix(0.933333,0,0,0.933333,1436,506.667)">
            <circle cx="1920" cy="820" r="30" style="fill:white;"/>
        </g>
        <g transform="matrix(0.933333,0,0,0.933333,1830,112.667)">
            <circle cx="1920" cy="820" r="30" style="fill:white;"/>
        </g>
        <g transform="matrix(0.933333,0,0,0.933333,1436,112.667)">
            <circle cx="1920" cy="820" r="30" style="fill:white;"/>
        </g>
        <g transform="matrix(1.85352e-17,0.302703,-0.816667,5.00064e-17,4159,323.297)">
            <rect x="1740" y="660" width="185" height="480" style="fill:white;"/>
        </g>
        <g transform="matrix(1.85352e-17,0.302703,-0.816667,5.00064e-17,4159,717.297)">
            <rect x="1740" y="660" width="185" height="480" style="fill:white;"/>
        </g>
        <g transform="matrix(-0.214043,-0.214043,-0.820833,0.820833,4555.98,728.484)">
            <rect x="1740" y="660" width="185" height="480" style="fill:white;"/>
        </g>
    </g>
    <g transform="matrix(1,0,0,1,100,4.54747e-13)">
        <g transform="matrix(0.933333,0,0,0.933333,1330,506.667)">
            <circle cx="1920" cy="820" r="30" style="fill:white;"/>
        </g>
        <g transform="matrix(0.933333,0,0,0.933333,936,506.667)">
            <circle cx="1920" cy="820" r="30" style="fill:white;"/>
        </g>
        <g transform="matrix(0.933333,0,0,0.933333,1330,112.667)">
            <circle cx="1920" cy="820" r="30" style="fill:white;"/>
        </g>
        <g transform="matrix(0.933333,0,0,0.933333,936,112.667)">
            <circle cx="1920" cy="820" r="30" style="fill:white;"/>
        </g>
        <g transform="matrix(1.85352e-17,0.302703,-0.816667,5.00064e-17,3659,323.297)">
            <rect x="1740" y="660" width="185" height="480" style="fill:white;"/>
        </g>
        <g transform="matrix(1.85352e-17,0.302703,-0.816667,5.00064e-17,3659,717.297)">
            <rect x="1740" y="660" width="185" height="480" style="fill:white;"/>
        </g>
        <g transform="matrix(-0.214043,-0.214043,-0.820833,0.820833,4055.98,728.484)">
            <rect x="1740" y="660" width="185" height="480" style="fill:white;"/>
        </g>
    </g>
    <g id="u" transform="matrix(1,0,0,1,50,2.27374e-13)">
        <g transform="matrix(0.9,0,0,0.9,715,535)">
            <path d="M1650,600C1650,738.071 1761.93,850 1900,850C2038.07,850 2150,738.071 2150,600L2087.5,600C2087.5,703.553 2003.55,787.5 1900,787.5C1796.45,787.5 1712.5,703.553 1712.5,600L1650,600Z" style="fill:white;"/>
        </g>
        <g transform="matrix(0.933333,0,0,0.933333,830,506.667)">
            <circle cx="1920" cy="820" r="30" style="fill:white;"/>
        </g>
        <g transform="matrix(0.933333,0,0,0.933333,830,112.667)">
            <circle cx="1920" cy="820" r="30" style="fill:white;"/>
        </g>
        <g transform="matrix(0.933333,0,0,0.933333,436,112.667)">
            <circle cx="1920" cy="820" r="30" style="fill:white;"/>
        </g>
        <g transform="matrix(0.302703,0,0,0.410417,1673.3,609.125)">
            <rect x="1740" y="660" width="185" height="480" style="fill:white;"/>
        </g>
        <g transform="matrix(0.302703,0,0,0.80625,2067.3,350.875)">
            <rect x="1740" y="660" width="185" height="480" style="fill:white;"/>
        </g>
    </g>
    <g id="P">
        <g transform="matrix(0.9,0,0,0.9,215,85)">
            <path d="M1900,850C2038.07,850 2150,738.071 2150,600C2150,462.021 2037.98,350 1900,350C1761.93,350 1650,461.929 1650,600L1712.5,600C1712.5,496.447 1796.45,412.5 1900,412.5C2003.48,412.5 2087.5,496.516 2087.5,600C2087.5,703.553 2003.55,787.5 1900,787.5L1900,850Z" style="fill:white;"/>
        </g>
        <g transform="matrix(0.933333,0,0,0.933333,-64,506.667)">
            <circle cx="1920" cy="820" r="30" style="fill:white;"/>
        </g>
        <g transform="matrix(0.933333,0,0,0.933333,133,56.6667)">
            <circle cx="1920" cy="820" r="30" style="fill:white;"/>
        </g>
        <g transform="matrix(0.302703,0,0,1.34792,1173.3,-264.625)">
            <rect x="1740" y="660" width="185" height="480" style="fill:white;"/>
        </g>
    </g>
</svg>
