<?xml version="1.0" encoding="UTF-8" standalone="no"?>
<!DOCTYPE svg PUBLIC "-//W3C//DTD SVG 1.1//EN" "http://www.w3.org/Graphics/SVG/1.1/DTD/svg11.dtd">
<svg width="100%" height="100%" viewBox="0 0 1280 1280" version="1.1" xmlns="http://www.w3.org/2000/svg" xmlns:xlink="http://www.w3.org/1999/xlink" xml:space="preserve" style="fill-rule:evenodd;clip-rule:evenodd;stroke-linejoin:round;stroke-miterlimit:1.41421;">
    <g>
        <path d="M261,1155.62C239.045,1139.47 208.577,1141.81 189.344,1161.12C158.889,1191.7 130.273,1220.44 130.273,1220.44L82.807,1267.9L82.709,1267.81C73.938,1275.4 62.502,1280 50,1280C22.404,1280 0,1257.6 0,1230L0,640C0,286.774 286.774,0 640,0C993.226,0 1280,286.774 1280,640C1280,993.226 993.226,1280 640,1280C498.575,1280 367.802,1234.03 261.823,1156.23C261.623,1156.08 261.382,1156 261.135,1156C261.135,1156 261.134,1156 261.134,1156C261.06,1156 261,1155.94 261,1155.87C261,1155.76 261,1155.62 261,1155.62C261,1155.62 261,1155.62 261,1155.62ZM828.431,339.464C798.094,249.71 713.279,184.961 613.415,184.644L612.679,184.643L611.943,184.644C486.621,185.041 385,286.907 385,412.321L385,1022.5C385,1062.71 417.646,1095.36 457.857,1095.36C498.068,1095.36 530.714,1062.71 530.714,1022.5L530.714,767.5C530.715,757.447 538.876,749.286 548.929,749.286C558.981,749.286 567.143,757.447 567.143,767.5L567.129,868.584L567.143,868.584L567.143,895.177C567.143,935.388 599.789,968.034 640,968.034C679.601,968.034 711.866,936.37 712.835,896.998L712.857,896.998L712.844,868.589L712.857,868.589L712.857,866.768L712.844,866.768L712.857,822.143C712.857,812.09 721.019,803.929 731.071,803.929C741.046,803.929 749.158,811.963 749.284,821.908L749.286,822.143L749.286,840.357L749.263,840.357L749.286,967.857C749.286,1008.07 781.932,1040.71 822.143,1040.71C862.295,1040.71 894.904,1008.16 894.999,968.034C895,967.975 895,967.916 895,967.857C895,952.778 882.758,940.536 867.679,940.536C852.599,940.536 840.357,952.778 840.357,967.857C840.357,977.91 832.195,986.071 822.143,986.071C812.1,986.071 803.945,977.926 803.929,967.887L803.929,967.857L803.906,841.268L803.929,841.268L803.929,822.143C803.928,781.932 771.282,749.286 731.071,749.286C690.861,749.286 658.215,781.932 658.214,822.143L658.201,867.855L658.201,867.855L658.201,868.125L658.201,868.584L658.201,868.584L658.201,868.125L658.201,867.855L658.214,867.855L658.214,868.584L658.201,868.584L658.214,895.177C658.214,905.23 650.053,913.391 640,913.391C629.947,913.391 621.786,905.23 621.786,895.177L621.786,866.768L621.773,866.768L621.786,766.589L621.78,766.589C621.29,726.796 588.834,694.643 548.929,694.643C508.875,694.643 476.327,727.034 476.073,767.029L476.071,767.5L476.071,1022.5C476.071,1032.55 467.91,1040.71 457.857,1040.71C447.804,1040.71 439.643,1032.55 439.643,1022.5L439.643,560.234C481.415,609.045 543.46,640 612.679,640L613.415,639.999C713.279,639.682 798.094,574.933 828.431,485.179L829.429,485.179C829.43,480.191 833.446,476.135 838.418,476.072L838.536,476.071L838.536,475.659C870.295,472.039 895,445.042 895,412.321C895,379.288 869.821,352.09 837.625,348.887L837.625,348.571C834.496,348.571 831.733,346.99 830.093,344.583C829.587,342.959 829.063,341.342 828.522,339.734C828.52,339.683 828.519,339.633 828.519,339.582L828.518,339.464L828.431,339.464ZM775.404,353.392C751.339,287.032 687.809,239.523 613.238,239.287L612.679,239.286C517.178,239.286 439.643,316.82 439.643,412.321L439.644,412.866C439.938,508.117 517.359,585.357 612.679,585.357L613.238,585.356C689.405,585.115 754.053,535.555 776.895,466.964L777.43,466.964C784.605,442.89 805.633,424.761 831.25,421.841L831.25,421.429C836.277,421.428 840.357,417.348 840.357,412.321C840.357,407.295 836.277,403.215 831.25,403.214L831.25,402.899C803.716,400.16 781.314,379.871 775.404,353.392ZM703.75,348.887C718.829,348.887 731.071,361.129 731.071,376.209C731.071,391.288 718.829,403.53 703.75,403.53C688.671,403.53 676.429,391.288 676.429,376.209C676.429,361.129 688.671,348.887 703.75,348.887Z" style="fill:rgb(69,130,236);"/>
    </g>
</svg>
